<svg width="33" height="33" viewBox="0 0 33 33" fill="none" xmlns="http://www.w3.org/2000/svg">
<path fill-rule="evenodd" clip-rule="evenodd" d="M7.88291 2.80904C9.55629 1.14529 12.3118 1.44092 13.7129 3.31367L15.4482 5.62917C16.5894 7.15267 16.4877 9.28117 15.1333 10.6273L14.806 10.9545C14.7689 11.0919 14.7652 11.2362 14.795 11.3753C14.8817 11.9363 15.3505 13.1243 17.314 15.0768C19.2775 17.0293 20.4738 17.4968 21.043 17.5848C21.1865 17.6136 21.3346 17.6094 21.4762 17.5724L22.0372 17.0142C23.2417 15.8179 25.0897 15.5938 26.5802 16.4037L29.2064 17.8337C31.4573 19.0547 32.0252 22.1127 30.1827 23.9455L28.2288 25.887C27.6128 26.4989 26.785 27.009 25.7758 27.1039C23.287 27.3363 17.4887 27.0393 11.3933 20.9797C5.70491 15.3229 4.61316 10.3894 4.47429 7.95842C4.40554 6.72917 4.98579 5.68967 5.72554 4.95542L7.88291 2.80904ZM12.0629 4.54979C11.3658 3.61892 10.0678 3.54467 9.33629 4.27204L7.17754 6.41704C6.72379 6.86804 6.50654 7.36579 6.53404 7.84154C6.64404 9.77342 7.52404 14.2243 12.848 19.518C18.4333 25.0703 23.5909 25.2367 25.5847 25.0497C25.9917 25.0125 26.3959 24.8008 26.774 24.4254L28.7265 22.4825C29.5213 21.6933 29.3467 20.255 28.2219 19.6445L25.5957 18.2159C24.8697 17.8227 24.0199 17.9519 23.4919 18.4772L22.8663 19.1L22.1375 18.3685C22.8663 19.1 22.8649 19.1014 22.8635 19.1014L22.8622 19.1042L22.858 19.1083L22.8484 19.1165L22.8278 19.1358C22.7698 19.1897 22.7072 19.2384 22.6408 19.2815C22.5308 19.3544 22.385 19.4355 22.2022 19.5029C21.8309 19.6418 21.3387 19.716 20.7309 19.6225C19.5388 19.4397 17.9589 18.627 15.8593 16.5398C13.761 14.4525 12.9415 12.8823 12.7573 11.6915C12.6624 11.0838 12.738 10.5915 12.8783 10.2203C12.9555 10.0114 13.066 9.81636 13.2055 9.64279L13.2495 9.59467L13.2688 9.57404L13.277 9.56579L13.2812 9.56167L13.2839 9.55892L13.6799 9.16567C14.2684 8.57854 14.3509 7.60642 13.7968 6.86529L12.0629 4.54979Z" fill="#5D624C"/>
</svg>
